<svg height="2126" width="720" xmlns="http://www.w3.org/2000/svg">
<rect height="2126" fill="#555" width="720"></rect>
<text fill="#7f7" font-family="Courier New" font-size="12" xml:space="preserve">
<tspan x="10" y="26">5 megabytes installed</tspan>
<tspan x="10" y="42"></tspan>
<tspan x="10" y="58">node_modules</tspan>
<tspan x="10" y="74">└─┬ sw-precache@5.1.0 </tspan>
<tspan x="10" y="90">  ├─┬ dom-urls@1.1.0 </tspan>
<tspan x="10" y="106">  │ └── urijs@1.18.10 </tspan>
<tspan x="10" y="122">  ├── es6-promise@4.1.0 </tspan>
<tspan x="10" y="138">  ├─┬ glob@7.1.1 </tspan>
<tspan x="10" y="154">  │ ├── fs.realpath@1.0.0 </tspan>
<tspan x="10" y="170">  │ ├─┬ inflight@1.0.6 </tspan>
<tspan x="10" y="186">  │ │ └── wrappy@1.0.2 </tspan>
<tspan x="10" y="202">  │ ├── inherits@2.0.3 </tspan>
<tspan x="10" y="218">  │ ├─┬ minimatch@3.0.3 </tspan>
<tspan x="10" y="234">  │ │ └─┬ brace-expansion@1.1.7 </tspan>
<tspan x="10" y="250">  │ │   ├── balanced-match@0.4.2 </tspan>
<tspan x="10" y="266">  │ │   └── concat-map@0.0.1 </tspan>
<tspan x="10" y="282">  │ ├── once@1.4.0 </tspan>
<tspan x="10" y="298">  │ └── path-is-absolute@1.0.1 </tspan>
<tspan x="10" y="314">  ├── lodash.defaults@4.2.0 </tspan>
<tspan x="10" y="330">  ├─┬ lodash.template@4.4.0 </tspan>
<tspan x="10" y="346">  │ ├── lodash._reinterpolate@3.0.0 </tspan>
<tspan x="10" y="362">  │ └── lodash.templatesettings@4.1.0 </tspan>
<tspan x="10" y="378">  ├─┬ meow@3.7.0 </tspan>
<tspan x="10" y="394">  │ ├─┬ camelcase-keys@2.1.0 </tspan>
<tspan x="10" y="410">  │ │ └── camelcase@2.1.1 </tspan>
<tspan x="10" y="426">  │ ├── decamelize@1.2.0 </tspan>
<tspan x="10" y="442">  │ ├─┬ loud-rejection@1.6.0 </tspan>
<tspan x="10" y="458">  │ │ ├─┬ currently-unhandled@0.4.1 </tspan>
<tspan x="10" y="474">  │ │ │ └── array-find-index@1.0.2 </tspan>
<tspan x="10" y="490">  │ │ └── signal-exit@3.0.2 </tspan>
<tspan x="10" y="506">  │ ├── map-obj@1.0.1 </tspan>
<tspan x="10" y="522">  │ ├── minimist@1.2.0 </tspan>
<tspan x="10" y="538">  │ ├─┬ normalize-package-data@2.3.6 </tspan>
<tspan x="10" y="554">  │ │ ├── hosted-git-info@2.4.2 </tspan>
<tspan x="10" y="570">  │ │ ├─┬ is-builtin-module@1.0.0 </tspan>
<tspan x="10" y="586">  │ │ │ └── builtin-modules@1.1.1 </tspan>
<tspan x="10" y="602">  │ │ ├── semver@5.3.0 </tspan>
<tspan x="10" y="618">  │ │ └─┬ validate-npm-package-license@3.0.1 </tspan>
<tspan x="10" y="634">  │ │   ├─┬ spdx-correct@1.0.2 </tspan>
<tspan x="10" y="650">  │ │   │ └── spdx-license-ids@1.2.2 </tspan>
<tspan x="10" y="666">  │ │   └── spdx-expression-parse@1.0.4 </tspan>
<tspan x="10" y="682">  │ ├── object-assign@4.1.1 </tspan>
<tspan x="10" y="698">  │ ├─┬ read-pkg-up@1.0.1 </tspan>
<tspan x="10" y="714">  │ │ ├─┬ find-up@1.1.2 </tspan>
<tspan x="10" y="730">  │ │ │ ├── path-exists@2.1.0 </tspan>
<tspan x="10" y="746">  │ │ │ └─┬ pinkie-promise@2.0.1 </tspan>
<tspan x="10" y="762">  │ │ │   └── pinkie@2.0.4 </tspan>
<tspan x="10" y="778">  │ │ └─┬ read-pkg@1.1.0 </tspan>
<tspan x="10" y="794">  │ │   ├─┬ load-json-file@1.1.0 </tspan>
<tspan x="10" y="810">  │ │   │ ├─┬ parse-json@2.2.0 </tspan>
<tspan x="10" y="826">  │ │   │ │ └─┬ error-ex@1.3.1 </tspan>
<tspan x="10" y="842">  │ │   │ │   └── is-arrayish@0.2.1 </tspan>
<tspan x="10" y="858">  │ │   │ ├── pify@2.3.0 </tspan>
<tspan x="10" y="874">  │ │   │ └─┬ strip-bom@2.0.0 </tspan>
<tspan x="10" y="890">  │ │   │   └── is-utf8@0.2.1 </tspan>
<tspan x="10" y="906">  │ │   └── path-type@1.1.0 </tspan>
<tspan x="10" y="922">  │ ├─┬ redent@1.0.0 </tspan>
<tspan x="10" y="938">  │ │ ├── indent-string@2.1.0 </tspan>
<tspan x="10" y="954">  │ │ └─┬ strip-indent@1.0.1 </tspan>
<tspan x="10" y="970">  │ │   └── get-stdin@4.0.1 </tspan>
<tspan x="10" y="986">  │ └── trim-newlines@1.0.0 </tspan>
<tspan x="10" y="1002">  ├─┬ mkdirp@0.5.1 </tspan>
<tspan x="10" y="1018">  │ └── minimist@0.0.8 </tspan>
<tspan x="10" y="1034">  ├── pretty-bytes@4.0.2 </tspan>
<tspan x="10" y="1050">  ├─┬ sw-toolbox@3.6.0 </tspan>
<tspan x="10" y="1066">  │ ├─┬ path-to-regexp@1.7.0 </tspan>
<tspan x="10" y="1082">  │ │ └── isarray@0.0.1 </tspan>
<tspan x="10" y="1098">  │ └── serviceworker-cache-polyfill@4.0.0 </tspan>
<tspan x="10" y="1114">  └─┬ update-notifier@1.0.3 </tspan>
<tspan x="10" y="1130">    ├─┬ boxen@0.6.0 </tspan>
<tspan x="10" y="1146">    │ ├── ansi-align@1.1.0 </tspan>
<tspan x="10" y="1162">    │ ├── cli-boxes@1.0.0 </tspan>
<tspan x="10" y="1178">    │ ├── filled-array@1.1.0 </tspan>
<tspan x="10" y="1194">    │ ├─┬ repeating@2.0.1 </tspan>
<tspan x="10" y="1210">    │ │ └─┬ is-finite@1.0.2 </tspan>
<tspan x="10" y="1226">    │ │   └── number-is-nan@1.0.1 </tspan>
<tspan x="10" y="1242">    │ ├─┬ string-width@1.0.2 </tspan>
<tspan x="10" y="1258">    │ │ ├── code-point-at@1.1.0 </tspan>
<tspan x="10" y="1274">    │ │ └── is-fullwidth-code-point@1.0.0 </tspan>
<tspan x="10" y="1290">    │ └── widest-line@1.0.0 </tspan>
<tspan x="10" y="1306">    ├─┬ chalk@1.1.3 </tspan>
<tspan x="10" y="1322">    │ ├── ansi-styles@2.2.1 </tspan>
<tspan x="10" y="1338">    │ ├── escape-string-regexp@1.0.5 </tspan>
<tspan x="10" y="1354">    │ ├─┬ has-ansi@2.0.0 </tspan>
<tspan x="10" y="1370">    │ │ └── ansi-regex@2.1.1 </tspan>
<tspan x="10" y="1386">    │ ├── strip-ansi@3.0.1 </tspan>
<tspan x="10" y="1402">    │ └── supports-color@2.0.0 </tspan>
<tspan x="10" y="1418">    ├─┬ configstore@2.1.0 </tspan>
<tspan x="10" y="1434">    │ ├─┬ dot-prop@3.0.0 </tspan>
<tspan x="10" y="1450">    │ │ └── is-obj@1.0.1 </tspan>
<tspan x="10" y="1466">    │ ├── graceful-fs@4.1.11 </tspan>
<tspan x="10" y="1482">    │ ├── os-tmpdir@1.0.2 </tspan>
<tspan x="10" y="1498">    │ ├── osenv@0.1.4 </tspan>
<tspan x="10" y="1514">    │ ├── uuid@2.0.3 </tspan>
<tspan x="10" y="1530">    │ └─┬ write-file-atomic@1.3.1 </tspan>
<tspan x="10" y="1546">    │   ├── imurmurhash@0.1.4 </tspan>
<tspan x="10" y="1562">    │   └── slide@1.1.6 </tspan>
<tspan x="10" y="1578">    ├── is-npm@1.0.0 </tspan>
<tspan x="10" y="1594">    ├─┬ latest-version@2.0.0 </tspan>
<tspan x="10" y="1610">    │ └─┬ package-json@2.4.0 </tspan>
<tspan x="10" y="1626">    │   ├─┬ got@5.7.1 </tspan>
<tspan x="10" y="1642">    │   │ ├─┬ create-error-class@3.0.2 </tspan>
<tspan x="10" y="1658">    │   │ │ └── capture-stack-trace@1.0.0 </tspan>
<tspan x="10" y="1674">    │   │ ├── duplexer2@0.1.4 </tspan>
<tspan x="10" y="1690">    │   │ ├── is-redirect@1.0.0 </tspan>
<tspan x="10" y="1706">    │   │ ├── is-retry-allowed@1.1.0 </tspan>
<tspan x="10" y="1722">    │   │ ├── is-stream@1.1.0 </tspan>
<tspan x="10" y="1738">    │   │ ├── lowercase-keys@1.0.0 </tspan>
<tspan x="10" y="1754">    │   │ ├── node-status-codes@1.0.0 </tspan>
<tspan x="10" y="1770">    │   │ ├── read-all-stream@3.1.0 </tspan>
<tspan x="10" y="1786">    │   │ ├─┬ readable-stream@2.2.9 </tspan>
<tspan x="10" y="1802">    │   │ │ ├── buffer-shims@1.0.0 </tspan>
<tspan x="10" y="1818">    │   │ │ ├── core-util-is@1.0.2 </tspan>
<tspan x="10" y="1834">    │   │ │ ├── isarray@1.0.0 </tspan>
<tspan x="10" y="1850">    │   │ │ ├── process-nextick-args@1.0.7 </tspan>
<tspan x="10" y="1866">    │   │ │ ├── string_decoder@1.0.0 </tspan>
<tspan x="10" y="1882">    │   │ │ └── util-deprecate@1.0.2 </tspan>
<tspan x="10" y="1898">    │   │ ├── timed-out@3.1.3 </tspan>
<tspan x="10" y="1914">    │   │ ├── unzip-response@1.0.2 </tspan>
<tspan x="10" y="1930">    │   │ └─┬ url-parse-lax@1.0.0 </tspan>
<tspan x="10" y="1946">    │   │   └── prepend-http@1.0.4 </tspan>
<tspan x="10" y="1962">    │   ├─┬ registry-auth-token@3.1.2 </tspan>
<tspan x="10" y="1978">    │   │ └─┬ rc@1.2.1 </tspan>
<tspan x="10" y="1994">    │   │   ├── deep-extend@0.4.1 </tspan>
<tspan x="10" y="2010">    │   │   ├── ini@1.3.4 </tspan>
<tspan x="10" y="2026">    │   │   └── strip-json-comments@2.0.1 </tspan>
<tspan x="10" y="2042">    │   └── registry-url@3.1.0 </tspan>
<tspan x="10" y="2058">    ├── lazy-req@1.1.0 </tspan>
<tspan x="10" y="2074">    ├── semver-diff@2.1.0 </tspan>
<tspan x="10" y="2090">    └─┬ xdg-basedir@2.0.0 </tspan>
<tspan x="10" y="2106">      └── os-homedir@1.0.2</tspan>
</text>
</svg>
